<svg xmlns="http://www.w3.org/2000/svg" viewBox="0 0 320 320" fill="none">
  <defs>
    <radialGradient id="stg" cx="50%" cy="40%" r="50%"><stop offset="0%" stop-color="#33ccff" stop-opacity="0.1"/><stop offset="100%" stop-color="#33ccff" stop-opacity="0"/></radialGradient>
    <filter id="gl"><feGaussianBlur stdDeviation="2" result="b"/><feMerge><feMergeNode in="b"/><feMergeNode in="SourceGraphic"/></feMerge></filter>
    <linearGradient id="rain" x1="0%" y1="0%" x2="0%" y2="100%"><stop offset="0%" stop-color="#33ccff" stop-opacity="0.3"/><stop offset="100%" stop-color="#33ccff" stop-opacity="0"/></linearGradient>
  </defs>
  <!-- Grid -->
  <g stroke="#33ccff" stroke-width="0.3" opacity="0.06"><line x1="0" y1="40" x2="320" y2="40"/><line x1="0" y1="80" x2="320" y2="80"/><line x1="0" y1="120" x2="320" y2="120"/><line x1="0" y1="160" x2="320" y2="160"/><line x1="0" y1="200" x2="320" y2="200"/><line x1="0" y1="240" x2="320" y2="240"/><line x1="0" y1="280" x2="320" y2="280"/><line x1="40" y1="0" x2="40" y2="320"/><line x1="80" y1="0" x2="80" y2="320"/><line x1="120" y1="0" x2="120" y2="320"/><line x1="160" y1="0" x2="160" y2="320"/><line x1="200" y1="0" x2="200" y2="320"/><line x1="240" y1="0" x2="240" y2="320"/><line x1="280" y1="0" x2="280" y2="320"/></g>
  <!-- Sky glow -->
  <circle cx="160" cy="100" r="140" fill="url(#stg)"/>
  <!-- Storm cloud mass -->
  <path d="M40,120 Q30,100 50,85 Q45,60 75,50 Q80,25 115,20 Q140,5 170,15 Q200,5 225,25 Q250,15 265,40 Q290,35 295,60 Q310,70 305,95 Q315,110 300,120 Z" fill="#33ccff" fill-opacity="0.04" stroke="#33ccff" stroke-width="1.5" opacity="0.35"/>
  <!-- Inner cloud layers -->
  <path d="M55,110 Q50,90 65,80 Q60,60 85,55 Q95,35 125,30 Q145,20 165,28 Q185,18 205,32 Q225,25 240,45 Q260,40 268,58 Q280,65 275,85 Q285,95 270,105 Z" fill="none" stroke="#33ccff" stroke-width="0.8" opacity="0.2"/>
  <path d="M70,100 Q68,85 78,78 Q75,65 92,60 Q100,48 118,45 Q132,38 148,42 Q162,35 175,45 Q190,40 198,52 Q210,48 215,60 Q225,58 228,70 Q235,75 230,88 Q238,95 225,100 Z" fill="none" stroke="#33ccff" stroke-width="0.5" opacity="0.12"/>
  <!-- Lightning bolts -->
  <g filter="url(#gl)"><polyline points="140,100 125,140 142,138 120,190" stroke="#33ccff" stroke-width="2.5" stroke-linejoin="round" fill="none"><animate attributeName="opacity" values="0;0;1;1;0;0;0;0;0.7;0.7;0;0;0;0" dur="4s" repeatCount="indefinite"/></polyline><polyline points="200,95 188,130 202,128 185,175" stroke="#33ccff" stroke-width="1.8" stroke-linejoin="round" fill="none"><animate attributeName="opacity" values="0;0;0;0;0;0;0;0;0;0.6;0.6;0;0;0" dur="4s" begin="2s" repeatCount="indefinite"/></polyline></g>
  <!-- Lightning glow halos -->
  <circle cx="132" cy="140" r="25" fill="#33ccff" opacity="0"><animate attributeName="opacity" values="0;0;0.15;0.08;0;0;0;0;0;0.1;0.05;0;0;0" dur="4s" repeatCount="indefinite"/></circle>
  <!-- Rain streaks -->
  <g stroke="#33ccff" stroke-width="0.6" opacity="0.2"><line x1="60" y1="125" x2="55" y2="160"><animate attributeName="y1" from="125" to="145" dur="0.8s" repeatCount="indefinite"/><animate attributeName="y2" from="160" to="200" dur="0.8s" repeatCount="indefinite"/><animate attributeName="opacity" values="0.2;0;0.2" dur="0.8s" repeatCount="indefinite"/></line><line x1="90" y1="120" x2="85" y2="155"><animate attributeName="y1" from="120" to="140" dur="0.7s" begin="0.1s" repeatCount="indefinite"/><animate attributeName="y2" from="155" to="195" dur="0.7s" begin="0.1s" repeatCount="indefinite"/><animate attributeName="opacity" values="0.15;0;0.15" dur="0.7s" begin="0.1s" repeatCount="indefinite"/></line><line x1="120" y1="118" x2="115" y2="153"><animate attributeName="y1" from="118" to="138" dur="0.9s" begin="0.2s" repeatCount="indefinite"/><animate attributeName="y2" from="153" to="193" dur="0.9s" begin="0.2s" repeatCount="indefinite"/><animate attributeName="opacity" values="0.2;0;0.2" dur="0.9s" begin="0.2s" repeatCount="indefinite"/></line><line x1="200" y1="118" x2="195" y2="153"><animate attributeName="y1" from="118" to="138" dur="0.75s" begin="0.3s" repeatCount="indefinite"/><animate attributeName="y2" from="153" to="193" dur="0.75s" begin="0.3s" repeatCount="indefinite"/><animate attributeName="opacity" values="0.18;0;0.18" dur="0.75s" begin="0.3s" repeatCount="indefinite"/></line><line x1="230" y1="120" x2="225" y2="155"><animate attributeName="y1" from="120" to="140" dur="0.85s" begin="0.15s" repeatCount="indefinite"/><animate attributeName="y2" from="155" to="195" dur="0.85s" begin="0.15s" repeatCount="indefinite"/><animate attributeName="opacity" values="0.15;0;0.15" dur="0.85s" begin="0.15s" repeatCount="indefinite"/></line><line x1="260" y1="125" x2="255" y2="160"><animate attributeName="y1" from="125" to="145" dur="0.7s" begin="0.25s" repeatCount="indefinite"/><animate attributeName="y2" from="160" to="200" dur="0.7s" begin="0.25s" repeatCount="indefinite"/><animate attributeName="opacity" values="0.2;0;0.2" dur="0.7s" begin="0.25s" repeatCount="indefinite"/></line></g>
  <!-- Wind shear arcs -->
  <g fill="none" stroke="#33ccff" stroke-width="1" opacity="0.3"><path d="M50,200 Q80,185 120,195"><animate attributeName="opacity" values="0.3;0.1;0.3" dur="2s" repeatCount="indefinite"/></path><path d="M180,210 Q220,195 270,205"><animate attributeName="opacity" values="0.2;0.08;0.2" dur="2.5s" repeatCount="indefinite"/></path><path d="M80,230 Q130,215 180,225"><animate attributeName="opacity" values="0.25;0.08;0.25" dur="1.8s" begin="0.5s" repeatCount="indefinite"/></path><path d="M140,240 Q190,228 240,238"><animate attributeName="opacity" values="0.2;0.05;0.2" dur="2.2s" begin="0.8s" repeatCount="indefinite"/></path></g>
  <!-- Precipitation radar circle -->
  <circle cx="160" cy="130" r="70" fill="none" stroke="#33ccff" stroke-width="0.6" stroke-dasharray="2 4" opacity="0.2"><animate attributeName="r" from="60" to="80" dur="3s" repeatCount="indefinite"/><animate attributeName="opacity" values="0.2;0.08;0.2" dur="3s" repeatCount="indefinite"/></circle>
  <circle cx="160" cy="130" r="45" fill="none" stroke="#33ccff" stroke-width="0.8" stroke-dasharray="3 3" opacity="0.25"><animate attributeName="r" from="40" to="55" dur="2.5s" repeatCount="indefinite"/></circle>
  <!-- Doppler intensity dots -->
  <g opacity="0.3"><circle cx="140" cy="120" r="5" fill="#33ccff" opacity="0.1"><animate attributeName="opacity" values="0.1;0.3;0.1" dur="2s" repeatCount="indefinite"/></circle><circle cx="175" cy="125" r="4" fill="#33ccff" opacity="0.1"><animate attributeName="opacity" values="0.1;0.25;0.1" dur="2.3s" begin="0.5s" repeatCount="indefinite"/></circle><circle cx="155" cy="145" r="6" fill="#ffaa00" opacity="0.1"><animate attributeName="opacity" values="0.1;0.35;0.1" dur="1.8s" begin="0.3s" repeatCount="indefinite"/></circle></g>
  <!-- IFR visibility bar -->
  <g opacity="0.4"><rect x="25" y="275" width="270" height="3" rx="1.5" fill="none" stroke="#33ccff" stroke-width="0.5"/><rect x="25" y="275" width="90" height="3" rx="1.5" fill="#ff3333" opacity="0.3"><animate attributeName="opacity" values="0.3;0.1;0.3" dur="1.5s" repeatCount="indefinite"/></rect><rect x="115" y="275" width="60" height="3" rx="1.5" fill="#ffaa00" opacity="0.2"/><rect x="175" y="275" width="120" height="3" rx="1.5" fill="#33ccff" opacity="0.15"/></g>
  <!-- Temperature/dewpoint lines -->
  <g opacity="0.15" stroke="#33ccff" stroke-width="0.5"><path d="M20,260 Q80,255 160,258 Q240,261 300,256" stroke-dasharray="4 3"><animate attributeName="stroke-dashoffset" from="40" to="0" dur="2s" repeatCount="indefinite"/></path><path d="M20,270 Q80,268 160,270 Q240,272 300,268" stroke-dasharray="4 3"><animate attributeName="stroke-dashoffset" from="40" to="0" dur="2.5s" repeatCount="indefinite"/></path></g>
  <!-- Corner brackets -->
  <g stroke="#33ccff" stroke-width="1.5" opacity="0.35"><polyline points="8,28 8,8 28,8" fill="none"/><polyline points="292,8 312,8 312,28" fill="none"/><polyline points="312,292 312,312 292,312" fill="none"/><polyline points="28,312 8,312 8,292" fill="none"/></g>
  <!-- Turbulence icon bottom right -->
  <g opacity="0.4" transform="translate(250,250)"><path d="M0,0 Q10,-8 20,0 Q30,8 40,0" fill="none" stroke="#33ccff" stroke-width="1.2"><animate attributeName="opacity" values="0.4;0.15;0.4" dur="1.5s" repeatCount="indefinite"/></path><path d="M5,10 Q15,2 25,10 Q35,18 45,10" fill="none" stroke="#33ccff" stroke-width="0.8"><animate attributeName="opacity" values="0.3;0.1;0.3" dur="1.5s" begin="0.3s" repeatCount="indefinite"/></path></g>
</svg>